<?xml version="1.0" standalone="no"?>
<!DOCTYPE svg PUBLIC "-//W3C//DTD SVG 1.1//EN" "http://www.w3.org/Graphics/SVG/1.1/DTD/svg11.dtd" >
<svg>
<metadata>
Created by FontForge 20110222 at Mon Mar  7 11:20:17 2011
 By www-data
THIS IS A TRIAL VERSION, ONLY FOR PERSONNAL USE. PLEASE CONTACT FLORENT@CUBO.FR FOR ANY COMMERCIAL USE
</metadata>
<defs>
<font id="Cyclo-Trial" horiz-adv-x="500" >
  <font-face 
    font-family="Cyclo"
    font-weight="400"
    font-stretch="normal"
    units-per-em="1000"
    panose-1="2 0 5 4 0 0 0 2 0 4"
    ascent="800"
    descent="-200"
    x-height="498"
    cap-height="701"
    bbox="-120 -269 848 732"
    underline-thickness="50"
    underline-position="-50"
    unicode-range="U+0020-007A"
  />
    <missing-glyph />
    <glyph glyph-name="space" unicode=" " 
 />
    <glyph glyph-name="B" unicode="B" horiz-adv-x="716" 
d="M560 350c56 -34 91 -95 91 -164c0 -105 -83 -187 -191 -187v0h-330c-13 0 -26 13 -26 26v646c0 13 13 27 26 27h330v0c104 0 191 -83 191 -187c0 -69 -39 -130 -91 -161zM460 645h-304v-269h304v0c78 0 139 61 139 135s-61 134 -139 134v0zM460 51c78 0 139 61 139 135
c0 78 -61 138 -139 138v0v0h-304v-273h304v0z" />
    <glyph glyph-name="C" unicode="C" horiz-adv-x="779" 
d="M58 351c0 190 157 347 347 347c109 0 218 -52 280 -142c9 -15 9 -34 -5 -43c-14 -10 -33 -5 -43 5c-52 76 -142 123 -232 123c-162 0 -290 -133 -290 -290c0 -161 128 -289 290 -289c104 0 204 57 256 147c5 14 24 24 38 14c14 -9 19 -24 10 -38
c-62 -114 -176 -185 -304 -185c-190 0 -347 157 -347 351z" />
    <glyph glyph-name="D" unicode="D" horiz-adv-x="749" 
d="M125 697h200c193 0 348 -160 348 -350c0 -193 -155 -348 -348 -348h-200c-17 0 -25 13 -25 30v643c0 12 13 25 25 25zM325 641h-173v-586c38 0 173 -4 173 -4c163 0 296 133 296 296c0 165 -133 294 -296 294z" />
    <glyph glyph-name="E" unicode="E" horiz-adv-x="724" 
d="M662 134c8 -9 8 -26 0 -39c-66 -62 -153 -96 -244 -96c-192 0 -353 157 -353 348v0v0v0c0 196 161 353 353 353c73 0 148 -22 204 -65c13 -9 18 -27 8 -39c-8 -10 -25 -14 -37 -5c-52 35 -110 57 -175 57c-157 0 -283 -122 -296 -271h356c13 0 27 -12 27 -26
c0 -13 -14 -26 -27 -26l-356 -3c13 -150 139 -272 296 -272c78 0 153 30 204 84c13 13 30 9 40 0z" />
    <glyph glyph-name="F" unicode="F" horiz-adv-x="708" 
d="M661 617c8 -8 8 -26 0 -39c-8 -8 -30 -11 -40 -3c-57 42 -122 70 -194 70c-157 0 -289 -132 -289 -290v-30h361c18 0 31 -14 31 -27s-13 -26 -31 -26h-361l5 -247c0 -13 -13 -26 -31 -26c-13 0 -26 13 -26 26l-4 325c0 194 158 347 345 347c85 0 167 -27 234 -80z" />
    <glyph glyph-name="G" unicode="G" horiz-adv-x="880" 
d="M495 11c-187 -44 -375 69 -423 257c-22 91 -9 188 39 266c52 79 126 135 218 157c109 27 223 0 310 -70c13 -13 13 -26 4 -39c-9 -9 -26 -13 -39 -5c-74 62 -170 88 -261 62c-79 -18 -145 -66 -184 -131c-43 -70 -52 -149 -35 -227c39 -157 201 -257 358 -218
c105 26 187 109 218 214h-126c-13 0 -26 9 -26 25c0 14 13 27 26 27h248c13 0 26 -9 26 -27c0 -12 -9 -25 -26 -25h-70v-13c-35 -127 -131 -223 -257 -253z" />
    <glyph glyph-name="H" unicode="H" horiz-adv-x="761" 
d="M666 673v-648c0 -13 -13 -26 -30 -26c-14 0 -27 13 -27 26v140v14c0 127 -105 236 -232 236c-122 0 -227 -109 -227 -236v-5v-149c0 -17 -14 -26 -27 -26c-17 0 -26 9 -26 26v640c0 13 13 26 26 26s27 -13 27 -26v-320c52 74 135 123 227 123c97 0 184 -49 232 -123v328
c0 13 13 27 27 27c17 0 30 -14 30 -27z" />
    <glyph glyph-name="I" unicode="I" horiz-adv-x="312" 
d="M134 673c0 18 13 28 28 28c14 0 28 -14 28 -28l-5 -644c0 -14 -9 -28 -28 -28c-14 0 -28 14 -28 28z" />
    <glyph glyph-name="J" unicode="J" horiz-adv-x="687" 
d="M585 674c0 0 5 -200 0 -364c-9 -258 -166 -311 -296 -311c-121 0 -227 71 -274 173c-9 14 0 31 14 36c14 9 33 0 37 -14c37 -84 125 -137 223 -137c153 0 231 84 241 253c4 164 0 360 0 364c0 14 9 27 28 27c13 0 27 -13 27 -27z" />
    <glyph glyph-name="K" unicode="K" horiz-adv-x="750" 
d="M124 699c13 0 25 -13 25 -26v-296h168v0c158 0 291 133 291 292c0 17 13 25 26 25c17 0 25 -8 25 -25c0 -142 -85 -266 -210 -318c129 -51 219 -175 219 -321c0 -17 -13 -30 -26 -30s-25 13 -25 30c0 163 -133 296 -300 296v0v0h-168v-292c0 -17 -12 -25 -25 -25
s-26 8 -26 25v639c0 13 13 26 26 26z" />
    <glyph glyph-name="L" unicode="L" horiz-adv-x="653" 
d="M463 0h-5c-206 4 -374 173 -374 379v300c0 14 14 28 28 28c18 0 29 -14 29 -28v-300c0 -178 144 -322 322 -322h104c14 0 28 -11 28 -29c0 -14 -14 -28 -28 -28h-104z" />
    <glyph glyph-name="M" unicode="M" horiz-adv-x="865" 
d="M116 4c-17 0 -30 13 -30 26v324c0 191 155 346 346 346c190 0 345 -155 345 -346v-324c0 -13 -13 -26 -26 -26c-17 0 -30 13 -30 26l5 324c0 151 -117 277 -268 290v-618c0 -13 -13 -26 -26 -26c-18 0 -31 13 -31 26l5 618c-152 -13 -264 -139 -264 -290v-324
c0 -13 -13 -26 -26 -26z" />
    <glyph glyph-name="N" unicode="N" horiz-adv-x="794" 
d="M696 676v-649c0 -13 -13 -26 -26 -26c-18 0 -30 13 -30 26c0 220 -56 385 -160 489c-108 103 -242 129 -329 129v-618c0 -13 -13 -26 -26 -26c-17 0 -30 13 -30 26v649c0 24 30 25 30 25c87 0 260 -17 389 -147c52 -51 96 -116 126 -194v316c0 12 12 25 30 25
c13 0 26 -13 26 -25z" />
    <glyph glyph-name="O" unicode="O" horiz-adv-x="871" 
d="M438 707c203 0 364 -162 364 -359c0 -198 -161 -359 -364 -359c-197 0 -358 161 -358 359c0 197 161 359 358 359zM438 43c171 0 311 134 311 305c0 166 -140 305 -311 305c-165 0 -305 -139 -305 -305c0 -171 140 -305 305 -305z" />
    <glyph glyph-name="P" unicode="P" horiz-adv-x="748" 
d="M347 698c177 0 319 -121 319 -272s-142 -277 -319 -277l-216 5v-129c0 -13 -12 -26 -25 -26c-18 0 -26 13 -26 26l-1 159v0v488c0 13 9 26 27 26h241zM347 206c147 0 264 99 264 220s-117 221 -264 221h-216v-441h216z" />
    <glyph glyph-name="Q" unicode="Q" horiz-adv-x="847" 
d="M416 702c96 0 183 -35 249 -100c65 -70 104 -157 104 -248c0 -96 -39 -183 -104 -249c-61 -60 -140 -95 -223 -104v-78c0 -18 -8 -26 -26 -26c-13 0 -26 8 -26 26v78c-178 17 -322 165 -322 353c0 91 35 178 100 248c65 65 157 100 248 100zM625 140c57 57 87 131 87 214
c0 78 -30 152 -87 209c-52 56 -130 87 -209 87c-78 0 -152 -31 -209 -87c-56 -57 -87 -131 -87 -209c0 -157 118 -283 270 -296v135c0 13 13 26 26 26c18 0 26 -13 26 -26v-135c70 4 135 34 183 82z" />
    <glyph glyph-name="R" unicode="R" horiz-adv-x="674" 
d="M562 52c9 -5 18 -13 18 -26v-4c-5 -18 -22 -22 -35 -18l-421 138v-112c0 -13 -13 -26 -30 -26c-13 0 -26 13 -26 26v146v5v489c0 17 13 26 26 26h193c172 0 314 -120 314 -271c0 -154 -142 -266 -344 -270c138 -47 305 -103 305 -103zM124 206h116c181 0 309 91 309 219
c0 121 -120 219 -262 219h-163v-120v-4v-314z" />
    <glyph glyph-name="S" unicode="S" horiz-adv-x="734" 
d="M367 52c96 0 188 48 245 128c-43 29 -525 332 -525 332c-14 11 -20 27 0 53c66 87 166 140 280 140s223 -58 289 -153c9 -14 9 -32 -4 -40c-13 -9 -31 -5 -40 8c-57 80 -149 127 -245 127c-92 0 -175 -35 -232 -105l530 -333c9 -4 13 -21 4 -35
c-61 -109 -175 -175 -302 -175c-122 0 -236 62 -302 168c-9 13 0 29 9 38c13 4 31 0 39 -9c53 -92 149 -144 254 -144z" />
    <glyph glyph-name="T" unicode="T" horiz-adv-x="835" 
d="M60 581c105 79 227 123 359 123c131 0 254 -44 359 -127c9 -9 13 -26 4 -35c-13 -13 -26 -13 -39 -4c-88 65 -188 105 -298 113v-626c0 -13 -13 -26 -26 -26c-18 0 -26 13 -26 26v626c-110 -8 -211 -48 -298 -113c-9 -9 -31 -9 -40 4c-8 9 -4 26 5 39z" />
    <glyph glyph-name="U" unicode="U" horiz-adv-x="797" 
d="M646 673c0 15 12 27 30 27c13 0 25 -12 25 -27v-324c0 -191 -134 -348 -300 -348c-164 0 -299 157 -299 348l-4 321c0 18 12 26 30 26c13 0 27 -8 27 -26v-321c0 -161 112 -297 246 -297c136 0 245 136 245 297v324z" />
    <glyph glyph-name="V" unicode="V" horiz-adv-x="758" 
d="M636 699c13 0 26 -13 26 -26v-644c0 -8 -4 -17 -13 -21l-4 -5c-4 0 -9 -4 -13 -4c-74 0 -257 13 -396 152c-117 118 -178 291 -178 522c0 13 13 26 26 26s26 -13 26 -26c0 -213 57 -378 161 -483c117 -113 261 -134 339 -134v617c0 13 9 26 26 26z" />
    <glyph glyph-name="W" unicode="W" horiz-adv-x="889" 
d="M789 668v-324c0 -188 -155 -343 -348 -343s-343 155 -343 343v324c0 14 14 28 28 28s28 -14 28 -28v-324c0 -150 113 -273 259 -287l4 611c0 19 15 33 29 33s28 -14 28 -33v-611c141 14 258 141 258 287l-4 324c0 14 14 28 32 28c15 0 29 -14 29 -28z" />
    <glyph glyph-name="X" unicode="X" horiz-adv-x="853" 
d="M774 26c0 -17 -13 -26 -26 -26c-149 0 -271 88 -324 214c-57 -126 -179 -214 -328 -214c-13 0 -26 9 -26 26c0 13 13 26 26 26c158 0 288 123 297 277c0 4 5 13 5 20c0 10 -5 19 -5 23c-9 152 -139 275 -297 275c-13 0 -26 13 -26 27c0 17 13 26 26 26
c149 0 271 -87 328 -215c53 128 175 215 324 215c13 0 26 -9 26 -26c0 -14 -13 -27 -26 -27c-158 0 -288 -123 -297 -275v-23v-20c9 -154 139 -277 297 -277c13 0 26 -13 26 -26z" />
    <glyph glyph-name="Y" unicode="Y" horiz-adv-x="829" 
d="M764 510c0 -181 -139 -334 -320 -348v-134c0 -19 -13 -28 -27 -28c-20 0 -28 9 -28 28v134c-181 14 -325 167 -325 348c0 60 14 116 42 168c9 13 23 18 37 13c14 -9 23 -27 14 -41c-23 -43 -37 -89 -37 -140c0 -163 134 -291 297 -291c162 0 291 128 291 291
c0 51 -13 97 -37 144c-4 14 0 28 15 37c13 9 28 5 37 -9c28 -51 41 -112 41 -172z" />
    <glyph glyph-name="Z" unicode="Z" horiz-adv-x="838" 
d="M760 50c13 -10 13 -27 4 -40c-8 -8 -25 -8 -35 0c-51 40 -107 69 -172 91c-155 43 -323 8 -443 -91h-1c-4 -4 -10 -5 -16 -5c-14 0 -26 11 -26 26c0 7 3 14 7 19h1l513 503c-104 -29 -215 -34 -323 -4c-69 21 -134 56 -190 103c-8 9 -13 27 0 35c8 13 26 13 35 4
c51 -43 108 -73 172 -90c154 -48 318 -14 442 89v1h1v0c4 3 10 5 15 5c15 0 27 -11 27 -26c0 -7 -3 -13 -7 -18v0l-513 -508c104 34 212 39 319 9c73 -21 138 -57 190 -103z" />
    <glyph glyph-name="a" unicode="a" horiz-adv-x="646" 
d="M560 252v-15v-212c0 -19 -11 -31 -29 -31c-13 0 -29 12 -29 31v68c-46 -58 -117 -94 -194 -94c-141 0 -253 112 -253 253c0 135 112 247 253 247c140 0 252 -112 252 -247zM308 52c103 0 188 83 194 185v4v5v6c0 107 -86 194 -194 194c-109 0 -194 -87 -194 -194
c0 -109 85 -200 194 -200z" />
    <glyph glyph-name="b" unicode="b" horiz-adv-x="642" 
d="M337 -1c-140 0 -252 112 -252 252v0v6v442c0 19 13 27 28 27c17 0 26 -8 26 -27v-289c49 54 118 90 198 90c136 0 249 -113 249 -249c0 -140 -113 -252 -249 -252zM337 447c-108 0 -198 -86 -198 -196c0 -108 90 -194 198 -194c110 0 196 86 196 194
c0 110 -86 196 -196 196z" />
    <glyph glyph-name="c" unicode="c" horiz-adv-x="600" 
d="M541 134c-44 -81 -125 -134 -218 -134c-139 0 -250 111 -250 250c0 137 111 250 250 250c79 0 155 -37 200 -104c9 -9 9 -26 -3 -35c-14 -9 -33 -9 -42 5c-35 49 -93 81 -155 81c-107 0 -197 -90 -197 -197s90 -192 197 -192c72 0 137 35 169 102c9 14 28 18 40 9
c13 -4 18 -21 9 -35z" />
    <glyph glyph-name="d" unicode="d" horiz-adv-x="651" 
d="M560 248c0 -138 -111 -249 -246 -249c-137 0 -249 111 -249 249c0 140 112 250 249 250c77 0 147 -41 193 -94v290c0 14 12 27 26 27c18 0 27 -13 27 -27v-441v-5v0zM314 52c108 0 193 90 193 196c0 108 -85 193 -193 193c-106 0 -196 -85 -196 -193
c0 -106 90 -196 196 -196z" />
    <glyph glyph-name="e" unicode="e" horiz-adv-x="577" 
d="M290 491c67 9 128 -12 181 -53c13 -13 27 -26 37 -40c3 -5 7 -9 7 -18c0 -4 -4 -13 -7 -17c0 0 -281 -236 -316 -267v0c84 -66 204 -52 271 27c8 13 25 13 39 4c9 -8 13 -27 6 -39c-90 -103 -245 -120 -352 -32c-49 40 -80 98 -89 164c-4 67 13 133 58 183
c40 53 98 83 165 88zM121 247c0 -39 13 -75 35 -111c31 32 257 217 293 249c-5 4 -9 4 -13 8c-40 36 -89 49 -143 45c-48 -4 -97 -31 -128 -71c-31 -35 -44 -75 -44 -120z" />
    <glyph glyph-name="f" unicode="f" horiz-adv-x="410" 
d="M340 498c17 0 27 -14 27 -30c0 -13 -10 -27 -27 -27h-183v-414c0 -12 -10 -26 -27 -26c-12 0 -29 14 -29 26v428v0v5v0v0c0 130 113 240 248 240c12 0 26 -14 26 -26c0 -13 -14 -27 -26 -27c-96 0 -170 -61 -184 -149h175z" />
    <glyph glyph-name="g" unicode="g" horiz-adv-x="678" 
d="M581 254v-209c0 -140 -113 -253 -254 -253c-18 0 -31 13 -31 27c0 13 13 27 31 27c109 0 195 91 195 199v51c-45 -59 -117 -96 -195 -96c-140 0 -253 114 -253 254s113 254 253 254c141 0 254 -114 254 -254zM522 240v18v5c-4 104 -91 185 -195 185
c-108 0 -199 -86 -199 -194s91 -199 199 -199c104 0 191 86 195 185z" />
    <glyph glyph-name="h" unicode="h" horiz-adv-x="704" 
d="M354 500c146 0 260 -109 260 -246v-228c0 -13 -14 -27 -28 -27c-18 0 -27 14 -27 27v228c0 109 -91 191 -205 191c-109 0 -200 -82 -200 -191v-5v-223c0 -13 -9 -27 -28 -27c-13 0 -27 14 -27 27v679c0 13 9 27 27 27c14 0 28 -14 28 -27v-296c45 54 118 91 200 91z" />
    <glyph glyph-name="i" unicode="i" horiz-adv-x="248" 
d="M99 478c0 19 11 29 29 29c12 0 27 -10 27 -29v-453c0 -15 -15 -28 -27 -28c-18 0 -29 13 -29 28v453z" />
    <glyph glyph-name="j" unicode="j" horiz-adv-x="272" 
d="M-120 -240c0 14 14 29 29 29c116 0 212 96 212 212v468c0 19 15 29 29 29c15 0 29 -10 29 -29v-468c0 -149 -120 -270 -270 -270c-15 0 -29 14 -29 29z" />
    <glyph glyph-name="k" unicode="k" horiz-adv-x="482" 
d="M391 56c17 0 26 -13 26 -26c0 -14 -9 -27 -26 -27c-115 0 -211 80 -238 186v-159c0 -18 -13 -31 -26 -31c-19 0 -27 13 -27 31v657c0 13 8 26 27 26c13 0 26 -13 26 -26v-379c27 105 123 189 238 189c17 0 26 -13 26 -26c0 -18 -9 -32 -26 -32c-106 0 -190 -83 -190 -189
c0 -105 84 -194 190 -194z" />
    <glyph glyph-name="l" unicode="l" horiz-adv-x="257" 
d="M101 675c0 18 10 27 28 27c14 0 28 -9 28 -27v-646c0 -13 -14 -26 -28 -26c-18 0 -28 13 -28 26v646z" />
    <glyph glyph-name="m" unicode="m" horiz-adv-x="754" 
d="M379 505c173 0 285 -94 285 -248v-228c0 -14 -13 -27 -27 -27c-18 0 -31 13 -31 27v228c0 108 -91 192 -193 193l1 -422c0 -14 -10 -31 -29 -32c-14 0 -31 16 -31 30l-1 422c-108 0 -197 -83 -197 -191l1 -228c0 -14 -13 -27 -32 -27c-14 0 -26 13 -26 27v228
c0 139 108 248 280 248z" />
    <glyph glyph-name="n" unicode="n" horiz-adv-x="679" 
d="M339 501c139 0 251 -108 251 -247v-224c0 -13 -13 -27 -27 -27c-18 0 -31 14 -31 27v224c0 108 -85 193 -193 193s-193 -85 -193 -193l-4 -228c0 -14 -9 -27 -27 -27c-14 0 -27 13 -27 27v228c0 139 112 247 251 247z" />
    <glyph glyph-name="o" unicode="o" horiz-adv-x="641" 
d="M61 254c0 136 114 251 256 251c68 0 131 -24 180 -73c47 -51 74 -113 74 -178c0 -141 -114 -255 -254 -255c-142 0 -256 114 -256 255zM517 254c0 49 -23 100 -60 136c-36 42 -87 61 -140 61c-111 0 -197 -92 -197 -197c0 -110 86 -201 197 -201c109 0 200 91 200 201z
" />
    <glyph glyph-name="p" unicode="p" horiz-adv-x="633" 
d="M580 252c0 -139 -114 -252 -253 -252c-82 0 -149 36 -198 95v-275c0 -15 -9 -28 -28 -28c-14 0 -27 13 -27 28v432v4c4 136 117 244 253 244c68 0 130 -22 176 -72c49 -49 77 -113 77 -176zM129 252c0 -108 90 -198 198 -198s194 90 194 198c0 50 -18 99 -55 136
c-40 40 -86 59 -139 59c-108 0 -198 -90 -198 -195z" />
    <glyph glyph-name="q" unicode="q" horiz-adv-x="629" 
d="M502 95c-45 -59 -117 -95 -193 -95c-140 0 -252 113 -252 248c0 139 112 252 252 252c67 0 130 -27 175 -72s72 -108 77 -171v-5v-432c0 -18 -14 -27 -32 -27c-13 0 -27 9 -27 27v275zM309 54c108 0 193 86 193 194c0 54 -18 103 -54 139c-40 36 -90 59 -139 59
c-108 0 -198 -90 -198 -198s90 -194 198 -194z" />
    <glyph glyph-name="r" unicode="r" horiz-adv-x="551" 
d="M133 500c13 0 27 -14 27 -27v-68c45 59 117 95 198 95c32 0 63 -5 95 -18l27 -9l12 -6l8 -6c9 -4 11 -15 11 -24c0 -5 0 -9 -4 -14c-9 -13 -27 -18 -41 -9l-9 5l-4 4l-18 9c-27 9 -50 14 -77 14c-108 0 -198 -86 -198 -199v-220c0 -14 -14 -28 -27 -28
c-18 0 -32 14 -32 28v220v0v0v226c0 13 14 27 32 27z" />
    <glyph glyph-name="s" unicode="s" horiz-adv-x="568" 
d="M496 125c-45 -80 -125 -125 -214 -125s-169 45 -214 116c-9 14 -5 32 9 41c13 8 27 4 36 -9c35 -58 98 -94 169 -94c58 0 116 27 152 76c-41 27 -348 223 -348 223c-9 4 -14 13 -14 22c0 5 0 9 5 13c0 5 0 9 4 14c45 62 121 98 201 98s161 -40 205 -112
c9 -8 5 -26 -9 -35c-9 -9 -27 -5 -35 9c-36 49 -99 84 -161 84c-58 0 -107 -22 -147 -62l352 -223c14 -9 18 -22 9 -36z" />
    <glyph glyph-name="t" unicode="t" horiz-adv-x="460" 
d="M155 441v-199v0c0 -101 84 -189 189 -189c18 0 31 -13 31 -27c0 -13 -13 -26 -31 -26c-132 0 -246 110 -246 246v0v427c0 18 13 27 31 27c13 0 26 -9 26 -27v-175h198c18 0 27 -13 27 -31c0 -13 -9 -26 -27 -26h-198z" />
    <glyph glyph-name="u" unicode="u" horiz-adv-x="699" 
d="M352 1c-139 0 -251 108 -251 247v224c0 13 13 27 27 27c18 0 31 -14 31 -27v-224c0 -108 85 -193 193 -193s193 85 193 193l4 228c0 14 9 27 27 27c14 0 27 -13 27 -27v-228c0 -139 -112 -247 -251 -247z" />
    <glyph glyph-name="v" unicode="v" horiz-adv-x="635" 
d="M505 498c19 0 32 -10 32 -27v-442c0 -19 -13 -27 -32 -27c-245 0 -437 201 -437 469c0 14 13 27 31 27c14 0 26 -13 26 -27c0 -116 37 -219 103 -295c68 -71 157 -112 251 -120v415c0 17 14 27 26 27z" />
    <glyph glyph-name="w" unicode="w" horiz-adv-x="722" 
d="M361 -2c-173 0 -285 94 -285 248v228c0 14 13 27 27 27c18 0 31 -13 31 -27v-228c0 -108 91 -192 193 -193l-1 422c0 14 10 31 29 32c14 0 31 -16 31 -30l1 -422c108 0 197 83 197 191l-1 228c0 14 13 27 32 27c14 0 26 -13 26 -27v-228c0 -139 -108 -248 -280 -248z" />
    <glyph glyph-name="x" unicode="x" horiz-adv-x="618" 
d="M531 447c-100 0 -186 -81 -195 -181v-19v-13c9 -100 95 -181 195 -181c18 0 27 -9 27 -28c0 -13 -9 -26 -27 -26c-95 0 -182 54 -223 135c-40 -81 -126 -135 -222 -135c-17 0 -26 13 -26 26c0 19 9 28 26 28c100 0 187 81 196 181v13v19c-9 100 -96 181 -196 181
c-17 0 -26 8 -26 28c0 13 9 26 26 26c96 0 182 -54 222 -135c41 81 128 135 223 135c18 0 27 -13 27 -26c0 -20 -9 -28 -27 -28z" />
    <glyph glyph-name="y" unicode="y" horiz-adv-x="645" 
d="M570 473l5 -392c0 -148 -115 -263 -249 -263c-18 0 -27 9 -27 26c0 13 9 28 27 28c107 0 190 93 190 209v13c-43 -54 -115 -89 -195 -89c-137 0 -249 112 -249 250v218c0 13 13 26 26 26c19 0 28 -13 28 -26v-218c0 -113 84 -197 195 -197c112 0 195 84 195 197v0v218
c0 13 14 26 27 26c14 0 27 -13 27 -26z" />
    <glyph glyph-name="z" unicode="z" horiz-adv-x="666" 
d="M598 44c13 -8 13 -25 4 -38c-9 -9 -26 -13 -38 0c-34 26 -74 47 -116 59c-108 31 -243 9 -329 -59v0c-4 -4 -9 -6 -15 -6c-15 0 -26 11 -26 26c0 7 3 13 9 18l342 331c-69 -13 -138 -13 -207 9c-50 12 -93 38 -136 69c-9 8 -15 21 -4 38c10 15 26 12 37 3
c35 -29 75 -51 121 -63c108 -31 223 -9 305 63h1c3 4 9 6 16 6c15 0 27 -12 27 -27c0 -5 -2 -11 -6 -16v0l-343 -335c64 12 153 12 221 -4c50 -18 99 -39 137 -74z" />
    <glyph glyph-name="A" unicode="A" horiz-adv-x="859" 
d="M794 83l19 -43c4 -17 -5 -30 -18 -35c-13 -4 -30 5 -34 18c-5 7 -20 45 -39 78c-61 104 -174 165 -295 165c-122 0 -227 -60 -292 -160c-34 -57 -45 -83 -43 -83c-8 -13 -21 -22 -34 -18c-13 5 -22 18 -18 35l17 36l348 611c4 8 13 13 22 13c8 0 17 -5 21 -13zM427 318
c73 0 143 -18 204 -52c-79 134 -183 312 -204 356c-26 -44 -126 -222 -204 -356c60 34 130 52 204 52z" />
  </font>
</defs>
</svg>
